<?xml version="1.0" standalone="no"?>
<!DOCTYPE svg PUBLIC "-//W3C//DTD SVG 20010904//EN"
 "http://www.w3.org/TR/2001/REC-SVG-20010904/DTD/svg10.dtd">
<svg version="1.0" xmlns="http://www.w3.org/2000/svg"
 width="2363.000000pt" height="1333.000000pt" viewBox="0 0 2363.000000 1333.000000"
 preserveAspectRatio="xMidYMid meet">

<g transform="translate(0.000000,1333.000000) scale(0.100000,-0.100000)"
fill="#000000" stroke="none">
<path d="M12203 12128 c-13 -18 -85 -11109 -72 -11123 23 -24 29 34 29 305 0
157 16 2654 35 5550 19 2895 31 5268 26 5273 -4 4 -12 2 -18 -5z"/>
<path d="M5293 11390 c-630 -79 -1186 -456 -1462 -990 -119 -231 -170 -422
-178 -670 -7 -221 19 -374 99 -588 l23 -62 1 128 c0 111 4 137 28 207 102 296
381 563 861 823 594 321 1256 518 1970 584 179 17 769 17 925 0 546 -59 891
-185 1123 -411 192 -186 277 -404 277 -708 0 -347 -99 -609 -329 -872 -210
-240 -673 -526 -1305 -805 -83 -37 -152 -68 -154 -71 -7 -6 276 -575 373 -750
243 -440 445 -725 661 -935 124 -120 223 -189 333 -234 67 -27 88 -30 176 -30
71 -1 115 5 152 17 48 17 51 20 43 42 -8 22 -5 26 46 49 153 70 214 185 149
280 -30 45 -31 50 -3 68 21 14 21 15 -43 88 -35 40 -120 123 -189 183 -69 61
-163 144 -210 185 -220 193 -330 372 -330 536 0 166 53 291 174 412 173 173
396 254 696 253 191 0 347 -44 410 -116 36 -40 44 -70 36 -126 -7 -42 -64
-158 -82 -164 -5 -2 -22 17 -37 42 -123 194 -438 263 -675 147 -71 -34 -161
-122 -192 -187 -28 -60 -38 -187 -20 -254 16 -59 91 -137 346 -357 219 -188
327 -298 399 -404 89 -134 122 -242 111 -371 -13 -162 -66 -271 -205 -426
-382 -425 -753 -591 -1106 -498 -497 132 -1067 877 -1615 2110 -34 77 -65 143
-69 148 -4 4 -47 -2 -97 -13 -120 -27 -304 -36 -364 -18 -41 13 -45 16 -42 43
5 46 67 226 100 292 126 249 350 375 637 360 55 -3 134 -13 175 -22 l76 -17
139 52 c638 238 986 584 1070 1064 19 112 19 252 0 335 -79 334 -478 579
-1030 632 -142 14 -443 6 -625 -15 -1058 -127 -2056 -696 -2551 -1454 l-67
-103 -33 46 c-18 25 -34 45 -35 45 -1 0 12 -37 30 -82 521 -1325 840 -2127
842 -2125 9 8 505 2430 520 2533 24 175 10 268 -52 351 l-25 32 37 16 c163 68
496 154 625 162 88 5 101 4 152 -20 78 -36 109 -90 114 -201 4 -69 -4 -122
-51 -346 -30 -146 -214 -1032 -409 -1970 -195 -938 -362 -1748 -371 -1801
l-16 -95 119 -301 c178 -452 249 -573 449 -765 217 -208 487 -344 814 -410
100 -20 141 -23 353 -23 222 1 250 3 368 28 313 67 597 198 827 384 93 75 238
225 309 318 81 108 2202 3506 2259 3620 415 834 23 1788 -858 2089 -140 48
-3970 1069 -4090 1091 -111 20 -400 28 -507 15z"/>
<path d="M15225 11340 c-360 -41 -721 -192 -997 -417 -183 -149 -372 -382
-473 -583 -169 -337 -210 -730 -110 -1072 12 -43 280 -733 596 -1533 l574
-1455 6 187 c7 199 18 288 49 418 79 333 276 623 575 845 266 197 576 349
1280 625 218 86 562 246 660 307 387 244 569 582 552 1027 -9 247 -72 400
-236 573 -138 146 -308 244 -491 284 -97 22 -271 28 -393 15 -459 -50 -807
-312 -1065 -801 -90 -169 -198 -462 -293 -795 -22 -77 -42 -148 -45 -157 -5
-16 -22 -18 -175 -18 l-169 0 0 43 c0 23 7 413 15 867 8 454 15 894 15 978 l0
152 169 0 169 0 83 -142 c45 -79 84 -145 85 -147 2 -1 40 19 86 47 137 82 245
137 395 201 293 125 486 164 815 165 120 1 214 2 210 3 -157 47 -1346 356
-1412 367 -114 20 -364 28 -475 16z"/>
<path d="M17845 10730 c322 -182 556 -424 714 -738 109 -217 150 -388 158
-654 11 -357 -36 -607 -162 -863 -124 -251 -353 -486 -655 -671 -179 -109
-425 -217 -1140 -500 -382 -151 -504 -208 -623 -297 -348 -258 -531 -685 -487
-1136 33 -346 163 -592 394 -746 319 -212 866 -246 1281 -80 362 146 700 484
924 925 97 191 225 533 290 778 l12 42 169 0 c170 0 170 0 170 -22 0 -13 -9
-327 -20 -698 -11 -371 -20 -684 -20 -694 0 -25 1696 2686 1755 2804 77 156
132 330 156 499 16 117 6 380 -20 492 -117 510 -476 902 -981 1073 -58 19
-530 148 -1050 287 -520 138 -952 254 -960 256 -8 3 35 -23 95 -57z"/>
<path d="M15220 5256 c0 -14 198 -502 227 -561 145 -288 365 -503 668 -651
355 -173 767 -218 1174 -128 448 100 822 340 1092 701 92 122 91 106 21 230
-80 141 -86 150 -103 136 -29 -23 -204 -115 -310 -163 -266 -120 -553 -208
-804 -246 -166 -26 -542 -26 -703 -1 -481 75 -879 280 -1194 616 -38 39 -68
69 -68 67z"/>
<path d="M14528 3381 c-118 -47 -240 -152 -318 -272 -112 -174 -132 -448 -44
-622 36 -71 65 -106 238 -292 82 -87 169 -186 193 -218 59 -80 87 -175 81
-270 -8 -125 -48 -165 -152 -154 -83 8 -129 39 -277 183 -136 133 -166 154
-218 154 -46 0 -61 -27 -61 -106 1 -138 64 -257 201 -374 153 -132 244 -172
399 -174 54 0 115 5 141 12 97 29 250 173 319 303 61 114 60 229 -2 391 -52
136 -113 216 -329 428 -228 225 -251 259 -251 378 1 74 15 115 61 179 37 52
118 112 148 113 26 0 27 -1 48 -160 19 -151 56 -230 129 -275 43 -26 59 -30
119 -30 62 0 71 2 92 27 51 59 57 223 15 389 -35 137 -52 163 -175 262 -169
135 -259 168 -357 128z"/>
<path d="M16651 3381 c-11 -11 -21 -33 -22 -48 -3 -101 -7 -421 -14 -1128 -8
-917 -11 -870 67 -918 63 -39 152 -48 188 -19 l25 20 -3 309 c-4 353 12 1193
29 1488 8 145 8 208 0 228 -14 37 -105 78 -187 84 -53 5 -64 3 -83 -16z"/>
<path d="M5730 3222 c-221 -58 -322 -229 -324 -547 -1 -396 154 -595 465 -595
179 0 324 83 389 223 53 113 64 176 64 357 0 126 -4 180 -17 230 -25 91 -68
180 -112 229 -94 103 -293 148 -465 103z m200 -119 c55 -51 65 -117 65 -443 0
-326 -10 -392 -65 -442 -61 -56 -143 -23 -169 68 -6 21 -16 116 -22 211 -12
182 -1 458 22 537 25 91 108 124 169 69z"/>
<path d="M4490 2660 l0 -560 155 0 155 0 0 265 0 265 40 0 c56 0 94 -22 115
-67 15 -30 20 -75 26 -213 4 -96 12 -192 19 -212 l11 -38 176 0 c145 0 174 2
164 13 -23 29 -42 106 -56 229 -23 205 -40 246 -122 295 l-45 26 35 17 c102
50 147 113 155 219 6 91 -16 156 -71 211 -94 94 -163 110 -499 110 l-258 0 0
-560z m458 414 c42 -32 62 -80 62 -154 0 -116 -46 -171 -150 -178 l-60 -4 0
182 0 182 60 -4 c39 -3 70 -11 88 -24z"/>
<path d="M6450 2660 l0 -561 318 3 c301 3 320 5 374 26 70 28 131 88 152 149
10 28 16 80 16 127 0 130 -54 218 -163 266 -42 19 -55 40 -24 40 24 0 90 56
114 98 18 31 27 63 31 111 9 132 -47 226 -164 272 -56 22 -73 23 -356 27
l-298 4 0 -562z m459 424 c49 -41 66 -147 40 -250 -17 -66 -55 -94 -130 -94
l-59 0 0 185 0 185 59 0 c49 0 65 -4 90 -26z m-3 -470 c54 -26 84 -98 84 -203
0 -144 -47 -201 -166 -201 l-64 0 0 210 0 210 56 0 c31 0 71 -7 90 -16z"/>
<path d="M7400 2660 l0 -560 370 0 370 0 0 65 0 65 -215 0 -215 0 0 210 0 210
155 0 155 0 0 65 0 65 -155 0 -155 0 0 155 0 155 185 0 185 0 0 65 0 65 -340
0 -340 0 0 -560z"/>
<path d="M8220 2660 l0 -560 155 0 155 0 0 265 0 265 40 0 c56 0 94 -22 115
-67 15 -30 20 -75 26 -213 4 -96 12 -192 19 -212 l11 -38 176 0 c145 0 174 2
164 13 -23 29 -42 106 -56 229 -23 205 -40 246 -122 295 l-45 26 35 17 c102
50 147 113 155 219 6 91 -16 156 -71 211 -94 94 -163 110 -499 110 l-258 0 0
-560z m458 414 c42 -32 62 -80 62 -154 0 -116 -46 -171 -150 -178 l-60 -4 0
182 0 182 60 -4 c39 -3 70 -11 88 -24z"/>
<path d="M9080 3155 l0 -65 125 0 125 0 0 -495 0 -495 165 0 165 0 0 495 0
495 125 0 125 0 0 65 0 65 -415 0 -415 0 0 -65z"/>
<path d="M20015 3098 c-52 -19 -82 -47 -109 -100 -39 -77 -32 -144 22 -217 72
-97 251 -92 317 8 110 166 -45 374 -230 309z m155 -28 c112 -57 130 -215 34
-299 -80 -71 -188 -61 -262 23 -75 85 -45 226 59 278 46 24 120 23 169 -2z"/>
<path d="M20023 3054 c-10 -4 -13 -41 -13 -135 0 -106 3 -129 15 -129 10 0 15
15 17 58 3 50 6 57 25 60 31 5 59 -28 67 -76 4 -29 11 -42 22 -42 13 0 15 7 9
36 -8 47 -26 84 -39 84 -6 0 -1 8 11 18 32 24 39 72 16 101 -15 18 -32 24 -69
27 -27 2 -55 1 -61 -2z m80 -23 c58 -22 36 -101 -28 -101 l-35 0 0 48 c0 65
10 73 63 53z"/>
<path d="M15603 2620 c-54 -33 -100 -121 -162 -310 -68 -209 -86 -352 -71
-544 14 -159 23 -205 56 -274 21 -43 39 -62 100 -103 41 -27 111 -68 156 -89
69 -34 92 -40 145 -40 81 0 124 21 189 93 127 138 194 356 194 630 0 286 -80
489 -224 572 -33 19 -299 85 -341 85 -6 0 -24 -9 -42 -20z m271 -325 c31 -95
41 -214 28 -353 -14 -142 -29 -207 -71 -311 -34 -85 -54 -117 -81 -131 -26
-14 -55 14 -69 67 -29 101 -22 363 13 533 19 91 74 229 103 258 24 24 25 24
43 6 9 -11 25 -41 34 -69z"/>
<path d="M19563 2626 c-64 -29 -123 -136 -191 -348 -101 -310 -119 -607 -46
-767 26 -58 65 -98 161 -167 133 -95 218 -114 327 -74 93 35 257 228 291 343
20 68 19 99 -6 131 -22 28 -87 66 -113 66 -8 0 -39 -28 -68 -62 -155 -181
-213 -228 -281 -228 -55 0 -69 25 -75 134 -5 108 6 149 47 170 22 12 193 43
386 72 81 12 85 19 85 157 0 67 -7 165 -15 218 -30 204 -85 281 -234 333 -101
35 -218 45 -268 22z m212 -246 c14 -28 35 -157 35 -219 0 -47 -13 -59 -87 -76
-74 -18 -113 -19 -113 -2 0 7 12 58 26 112 61 235 92 276 139 185z"/>
<path d="M17695 2613 c-141 -9 -292 -25 -331 -34 -38 -10 -44 -15 -50 -43 -6
-36 10 -168 26 -210 5 -14 16 -29 24 -32 9 -3 55 4 104 15 107 25 250 29 258
7 3 -8 -32 -62 -84 -128 -109 -138 -382 -532 -413 -594 -26 -55 -22 -93 20
-179 53 -106 28 -100 378 -103 236 -2 308 0 320 10 20 16 13 125 -12 187 -24
57 -52 68 -216 83 -71 6 -137 17 -146 23 -14 11 -1 33 104 176 142 194 362
516 393 576 19 37 20 47 10 77 -17 54 -86 142 -124 160 -33 16 -115 19 -261 9z"/>
<path d="M18705 2613 c-141 -9 -292 -25 -331 -34 -38 -10 -44 -15 -50 -43 -6
-36 10 -168 26 -210 5 -14 16 -29 24 -32 9 -3 55 4 104 15 107 25 250 29 258
7 3 -8 -32 -62 -84 -128 -109 -138 -382 -532 -413 -594 -26 -55 -22 -93 20
-179 53 -106 28 -100 378 -103 236 -2 308 0 320 10 20 16 13 125 -12 187 -24
57 -52 68 -216 83 -71 6 -137 17 -146 23 -14 11 -1 33 104 176 142 194 362
516 393 576 19 37 20 47 10 77 -17 54 -86 142 -124 160 -33 16 -115 19 -261 9z"/>
<path d="M4720 1905 c-67 -19 -117 -58 -150 -116 -19 -35 -24 -58 -24 -114 0
-130 59 -206 218 -280 108 -50 156 -96 156 -151 0 -70 -43 -104 -130 -104 -67
0 -115 21 -140 62 -17 27 -20 46 -18 106 3 69 2 73 -17 68 -11 -3 -28 -6 -37
-6 -36 0 -50 -30 -43 -89 18 -143 102 -205 275 -205 67 0 96 5 138 23 98 44
148 130 140 245 -7 122 -83 202 -261 277 -112 48 -147 80 -147 138 0 57 34 84
113 89 113 7 172 -37 172 -130 l0 -49 40 7 c22 3 44 10 49 15 17 15 -14 118
-45 154 -56 63 -182 89 -289 60z"/>
<path d="M5395 1906 c-90 -22 -152 -70 -190 -145 -41 -81 -58 -212 -44 -343
16 -160 70 -253 177 -305 51 -25 68 -28 152 -27 115 0 179 24 238 88 126 136
131 500 10 646 -68 82 -213 118 -343 86z m152 -78 c39 -42 47 -100 47 -328 0
-228 -8 -286 -47 -327 -28 -31 -86 -31 -114 0 -39 41 -47 99 -47 327 0 228 8
286 47 328 14 15 32 22 57 22 25 0 43 -7 57 -22z"/>
<path d="M5930 1500 l0 -410 105 0 105 0 0 190 0 190 120 0 120 0 0 40 0 40
-120 0 -120 0 0 140 0 140 235 0 235 0 0 -370 0 -370 115 0 115 0 0 370 0 370
95 0 c92 0 95 1 96 23 1 21 57 -200 149 -585 l42 -178 69 0 68 0 9 34 c6 18
29 117 53 220 24 102 47 186 50 186 3 0 25 -84 49 -187 24 -104 47 -203 52
-220 l9 -33 68 0 68 0 102 399 c55 219 101 403 101 410 0 6 -16 11 -39 11
l-38 0 -58 -237 c-31 -131 -60 -241 -64 -245 -4 -4 -31 101 -62 235 l-54 242
-64 0 -64 0 -56 -242 c-31 -133 -58 -239 -61 -237 -3 3 -30 112 -60 242 l-55
237 -658 3 -657 2 0 -410z"/>
<path d="M8131 1878 c-19 -62 -211 -768 -211 -778 0 -5 17 -10 39 -10 l39 0
22 90 22 90 118 0 118 0 22 -90 22 -90 110 0 c99 0 109 2 104 18 -7 23 -206
795 -206 799 0 2 -42 3 -94 3 l-94 0 -11 -32z m84 -353 l42 -175 -93 0 c-52 0
-94 3 -94 8 0 6 25 105 81 316 6 21 13 36 16 32 3 -3 25 -84 48 -181z"/>
<path d="M8600 1501 l0 -411 105 0 105 0 0 195 0 195 45 0 c35 0 52 -6 70 -24
28 -28 32 -52 39 -201 2 -60 9 -122 15 -137 l11 -28 114 0 114 0 -14 40 c-8
22 -18 81 -24 132 -6 51 -15 110 -21 130 -10 38 -52 78 -99 96 -25 9 -24 10
15 26 108 46 154 158 106 261 -23 51 -53 78 -116 107 -46 20 -68 23 -257 26
l-208 4 0 -411z m328 315 c39 -20 57 -60 57 -126 0 -97 -40 -140 -130 -140
l-45 0 0 140 0 140 45 0 c26 0 58 -6 73 -14z"/>
<path d="M9320 1500 l0 -410 265 0 265 0 0 40 0 40 -160 0 -160 0 0 165 0 165
115 0 115 0 0 40 0 40 -115 0 -115 0 0 125 0 125 140 0 140 0 0 40 0 40 -245
0 -245 0 0 -410z"/>
</g>
</svg>
