<?xml version="1.0" standalone="no"?>
<!DOCTYPE svg PUBLIC "-//W3C//DTD SVG 20010904//EN"
 "http://www.w3.org/TR/2001/REC-SVG-20010904/DTD/svg10.dtd">
<svg version="1.0" xmlns="http://www.w3.org/2000/svg"
 width="26.000000pt" height="26.000000pt" viewBox="0 0 26.000000 26.000000"
 preserveAspectRatio="xMidYMid meet">

<g transform="translate(0.000000,26.000000) scale(0.100000,-0.100000)"
fill="#000000" stroke="none">
<path d="M29 229 c-26 -26 -18 -36 13 -15 12 9 34 16 48 16 20 0 22 2 10 10
-24 15 -48 12 -71 -11z"/>
<path d="M85 213 c-11 -2 -31 -12 -45 -23 -22 -17 -23 -20 -10 -47 l13 -28 10
43 c6 24 16 42 23 42 17 0 17 1 -1 -80 -12 -56 -12 -68 1 -88 18 -28 64 -29
88 -3 16 17 16 19 -3 24 -16 4 -71 75 -71 92 0 3 8 5 18 5 11 0 27 9 38 21 18
20 18 21 -1 35 -19 14 -23 15 -60 7z"/>
<path d="M183 206 c5 -13 -2 -27 -24 -47 -30 -28 -31 -30 -15 -54 9 -14 24
-25 33 -25 14 0 14 2 -2 20 -14 16 -16 23 -7 32 9 9 12 8 12 -4 0 -8 6 -21 13
-27 20 -16 58 55 46 87 -4 12 -13 22 -18 22 -5 0 -17 3 -27 7 -14 5 -16 3 -11
-11z"/>
</g>
</svg>
